<svg xmlns="http://www.w3.org/2000/svg" viewBox="0 0 64 64" role="img" aria-label="Momentum Builder favicon">
  <defs>
    <linearGradient id="bg" x1="0" y1="0" x2="1" y2="1">
      <stop offset="0%" stop-color="#FFE66D"/>
      <stop offset="55%" stop-color="#FF9F43"/>
      <stop offset="100%" stop-color="#FF6B6B"/>
    </linearGradient>
    <linearGradient id="flame" x1="0" y1="0" x2="0" y2="1">
      <stop offset="0%" stop-color="#FFF7C2"/>
      <stop offset="55%" stop-color="#FFE66D"/>
      <stop offset="100%" stop-color="#FF9F43"/>
    </linearGradient>
  </defs>

  <rect x="4" y="4" width="56" height="56" rx="16" fill="url(#bg)"/>
  <path d="M33 14c4 8-4 10 2 18 2-1 5-4 5-8 6 7 8 17 3 24-4 6-12 8-18 5-8-4-11-15-6-23 3-4 7-7 8-13 3 3 4 6 3 10 4-3 5-8 3-13z" fill="#2B2D42" opacity="0.22"/>
  <path d="M32 16c3 7-3 9 2 15 2-1 4-3 4-6 5 6 6 13 3 18-3 5-10 7-15 4-6-3-8-11-5-17 2-3 6-6 7-10 2 2 3 5 2 8 3-2 4-7 2-12z" fill="url(#flame)"/>
  <path d="M32 28c2 4-2 6 1 9 1-1 2-2 2-4 3 3 4 7 2 10-2 3-6 4-9 2-3-2-4-6-2-10 1-2 3-3 4-6 1 1 1 3 1 4 2-1 2-3 1-5z" fill="#FFF9E6"/>
</svg>
