<svg xmlns="http://www.w3.org/2000/svg" viewBox="0 0 410 404"><path fill="#41D1FF" d="M399.641 59.524L215.643 388.545c-3.767 6.77-13.474 6.813-17.293.076L10.341 59.518c-4.15-7.332 2.132-16.33 10.336-14.798l184.111 34.44a9.3 9.3 0 0 0 3.416-.003l180.76-34.39c8.2-1.56 14.495 7.43 10.677 14.757Z"/><path fill="#BD34FE" d="M292.965.575 156.96 27.2a4.65 4.65 0 0 0-3.767 3.729L130.126 152.76a4.65 4.65 0 0 0 5.587 5.429l37.885-7.287a4.65 4.65 0 0 1 5.295 5.734l-11.251 55.076a4.65 4.65 0 0 0 5.42 5.477l23.399-4.496a4.65 4.65 0 0 1 5.402 5.455l-17.877 87.16c-1.119 5.45 6.135 8.422 9.158 3.745l2.02-3.125L307.76 92.266a4.65 4.65 0 0 0-4.889-7.061l-39.66 7.626a4.65 4.65 0 0 1-5.35-5.106l25.88-79.61c1.776-5.456-3.052-10.796-8.777-9.54Z"/></svg>
